HIERARCHY
ROOT bottle4_body
{
	OFFSET 0.000000 0.000000 0.000000
	CHANNELS 6 Xposition Yposition Zposition Yrotation Xrotation Zrotation
	End Site
	{
		OFFSET 0.000000 0.000000 0.000000
	}
}
MOTION
Frames: 82
Frame Time: 0.008333334
1.898044 5.842507 4.014881 -176.777000 31.324930 -15.969020 
1.900166 5.837141 4.013969 -176.835400 31.132890 -16.607270 
1.900743 5.833329 4.014686 -176.262100 31.316030 -16.310490 
1.901376 5.829590 4.014885 -175.892100 31.485910 -16.023040 
1.902220 5.824383 4.014403 -175.662200 31.434100 -15.977910 
1.901583 5.819721 4.015233 -175.421500 31.472930 -15.798520 
1.900820 5.814087 4.015811 -175.599500 31.206130 -16.096740 
1.898381 5.809741 4.019096 -175.661700 31.120220 -16.183620 
1.895260 5.804398 4.022666 -176.085300 30.857170 -16.465210 
1.892733 5.799982 4.025309 -176.750700 30.605680 -16.952760 
1.891398 5.797902 4.026761 -177.257000 30.327230 -17.252720 
1.890453 5.797433 4.027592 -177.829900 30.037300 -17.496610 
1.890068 5.798511 4.028597 -178.229400 29.840320 -17.644320 
1.889706 5.801455 4.029317 -178.342800 29.746030 -17.707120 
1.889467 5.805244 4.030382 -178.193700 29.700780 -17.592800 
1.890287 5.810549 4.034050 -177.649800 29.738230 -17.422360 
1.891623 5.815458 4.037612 -177.257600 29.684560 -17.234890 
1.892971 5.819050 4.041300 -177.016800 29.596870 -17.195370 
1.895820 5.822405 4.045622 -176.525300 29.549830 -17.139070 
1.899533 5.826150 4.049357 -176.160000 29.506840 -17.132020 
1.902836 5.830393 4.053018 -175.692400 29.353190 -17.019230 
1.906103 5.835893 4.056066 -175.117500 29.391190 -16.904360 
1.908976 5.841948 4.057790 -174.647800 29.263990 -16.938350 
1.910823 5.849508 4.058979 -174.131100 29.137150 -16.856810 
1.912107 5.857368 4.059559 -173.779200 29.133620 -16.905820 
1.910146 5.869666 4.060512 -173.229500 29.281970 -15.971440 
1.915908 5.873906 4.058588 -173.049700 29.012620 -17.377110 
1.917828 5.883872 4.057325 -172.618900 29.084670 -17.499660 
1.919715 5.892420 4.056365 -172.118200 29.245070 -17.627620 
1.921714 5.901996 4.055152 -171.544000 29.680810 -17.777160 
1.924005 5.910626 4.052626 -171.078300 29.922600 -18.054350 
1.926468 5.920476 4.049893 -170.677200 30.322890 -18.347630 
1.927830 5.930591 4.047850 -170.318700 30.899020 -18.519650 
1.928216 5.941036 4.045719 -169.955100 31.437930 -18.731780 
1.927801 5.951284 4.044351 -169.538000 32.185900 -18.888090 
1.926037 5.961864 4.043363 -169.132100 32.935550 -18.848720 
1.923274 5.971297 4.042469 -168.977000 33.613180 -18.624820 
1.920473 5.980525 4.043884 -168.502200 34.350380 -18.461670 
1.917081 5.987739 4.044046 -168.314200 35.211250 -18.142400 
1.913946 5.995013 4.045712 -167.851900 36.048280 -17.739380 
1.910635 6.000689 4.048664 -167.591600 36.839650 -17.365450 
1.906519 6.004663 4.051960 -167.660000 37.451120 -16.988710 
1.903221 6.008019 4.056637 -167.691800 38.046500 -16.567200 
1.898857 6.010242 4.062069 -167.827900 38.603460 -16.168090 
1.894963 6.010845 4.065692 -168.097900 38.616930 -15.893190 
1.890544 6.008750 4.066566 -168.428000 38.462210 -15.602390 
1.886692 6.005803 4.066366 -168.581000 38.142050 -15.434390 
1.883457 6.002230 4.065489 -168.274400 37.668030 -14.970670 
1.881504 5.998171 4.063689 -167.785700 37.441640 -14.506650 
1.880547 5.994269 4.061548 -167.073200 37.104460 -14.026790 
1.880591 5.990322 4.059601 -166.374300 36.739690 -13.547270 
1.881570 5.986556 4.058294 -165.744200 36.446500 -13.206540 
1.882824 5.982272 4.056949 -165.396200 36.031870 -12.956120 
1.884859 5.977252 4.056769 -165.042900 35.538300 -12.863590 
1.887110 5.973024 4.057445 -164.631400 35.209270 -12.616670 
1.889119 5.968848 4.059240 -164.427600 35.022960 -12.493070 
1.890720 5.964991 4.062071 -164.353400 35.040380 -12.508940 
1.893465 5.962274 4.065324 -164.306600 35.115180 -12.508610 
1.896708 5.960406 4.068333 -164.059000 35.437110 -12.317570 
1.900174 5.959358 4.071754 -163.603700 35.840600 -12.165860 
1.903778 5.957825 4.074031 -163.028700 36.216230 -11.957730 
1.907068 5.956947 4.075340 -162.276000 36.656650 -11.636960 
1.909938 5.955251 4.076507 -161.489100 36.986790 -11.380400 
1.911994 5.953913 4.077641 -160.602400 37.293040 -10.940610 
1.913913 5.953809 4.078542 -159.552700 37.717090 -10.388030 
1.914871 5.953926 4.079504 -158.372000 37.965900 -9.779297 
1.915772 5.954043 4.079813 -156.917300 38.290360 -8.971771 
1.916093 5.954893 4.079859 -154.975200 38.824960 -7.845795 
1.916415 5.954983 4.079661 -152.742600 39.301550 -6.569702 
1.915850 5.954974 4.079036 -150.279100 39.583270 -5.110779 
1.914885 5.954868 4.078866 -147.346400 40.011990 -3.381104 
1.913839 5.953644 4.078023 -144.218200 40.271750 -1.465118 
1.914281 5.951993 4.078537 -141.031300 40.628180 0.209555 
1.915014 5.950226 4.079789 -137.773600 40.781550 2.052110 
1.916264 5.947770 4.080804 -134.903700 40.770250 3.510556 
1.918314 5.945921 4.082912 -132.027900 40.641020 5.095566 
1.919877 5.944450 4.086198 -129.271800 40.439150 6.565876 
1.921737 5.943264 4.089347 -126.521400 40.324810 7.983968 
1.924472 5.942201 4.089662 -124.314900 39.933170 9.239161 
1.927248 5.942389 4.091819 -121.699400 39.596240 10.657620 
1.929486 5.942820 4.092413 -119.186500 39.239400 11.960140 
1.932308 5.943639 4.090926 -116.737300 38.627040 13.331820 
